<?xml version="1.0" encoding="utf-8"?>
<!-- Svg Vector Icons : http://www.onlinewebfonts.com/icon -->
<!DOCTYPE svg PUBLIC "-//W3C//DTD SVG 1.1//EN" "http://www.w3.org/Graphics/SVG/1.1/DTD/svg11.dtd">
<svg version="1.1" xmlns="http://www.w3.org/2000/svg" xmlns:xlink="http://www.w3.org/1999/xlink" x="0px" y="0px" viewBox="0 0 1000 1000" enable-background="new 0 0 1000 1000" xml:space="preserve">
<metadata> Svg Vector Icons : http://www.onlinewebfonts.com/icon </metadata>
<g><path d="M870.2,797.3l-99.5-2.4l2.4-99.7c0.4-15.7-12.1-28.8-27.8-29.2c-15.7-0.4-28.8,12-29.2,27.8l-2.4,99.7l-99.6-2.4c-15.7-0.4-28.8,12.1-29.2,27.8c-0.4,15.7,12,28.8,27.8,29.2l99.6,2.4l-2.4,99.7c-0.4,15.7,12,28.8,27.8,29.2c15.7,0.4,28.8-12,29.2-27.8l2.4-99.6l99.5,2.4c15.6,0.4,28.8-12,29.2-27.8C898.3,810.8,885.9,797.7,870.2,797.3L870.2,797.3z"/><path d="M515.1,568.6c2.2,15.9,16.9,27.1,32.7,25.1c117.1-14.5,232.6,25.5,316.9,109.9c11.4,11.4,29.8,11.5,41.1,0.3c11.3-11.2,11.2-29.7-0.3-41.1C808.3,565.4,675,519.2,539.9,536C524.4,538,512.9,553.1,515.1,568.6z M113.8,990c15.9,0.5,29.2-12.2,29.7-28.4c6.3-209.1,178.4-374.1,383.6-367.9c158.1,4.8,290.6-122.2,295.5-283.1c4.8-160.9-119.8-295.7-277.9-300.5C386.6,5.4,254.1,132.4,249.2,293.3c-3.2,106.5,52.2,207,142.4,260.6C216.3,608.1,91.5,772.7,85.8,959.9C85.3,976,97.9,989.5,113.8,990z M542.9,68.8c126.3,3.8,225.8,111.5,221.9,240.1C761,437.5,655.2,539,528.9,535.1c-126.2-3.8-225.6-111.5-221.8-240.1C311,166.6,416.8,65.1,542.9,68.8z"/></g>
</svg>